<?xml version="1.0" encoding="utf-8"?>
<!-- Generator: Adobe Illustrator 22.0.0, SVG Export Plug-In . SVG Version: 6.00 Build 0)  -->
<svg version="1.1" id="Layer_1" xmlns="http://www.w3.org/2000/svg" xmlns:xlink="http://www.w3.org/1999/xlink" x="0px" y="0px"
	 viewBox="0 0 595.3 841.9" style="enable-background:new 0 0 595.3 841.9;" xml:space="preserve">
<style type="text/css">
	.st0{fill:#FFFFFF;stroke:#000000;stroke-miterlimit:10;}
</style>
<g>
	<circle class="st0" cx="219.6" cy="141.3" r="14.9"/>
	<path class="st0" d="M219.6,160.9h12.8c0,0,11.7,1.7,15,11c3.3,9.3,8.3,26,8.3,26l3.7,11.7l3,9.3c0,0,0.2,4.5-1.5,6.2
		c-1.7,1.7-3,2.3-5,2.3c-2,0-3.8-0.8-4.7-1.8c-0.8-1-10.3-33.8-10.3-33.8l-3.1-9.3h-3.5l20.7,71.3h-19v51.5c0,0-0.8,4.2-2.2,5.5
		c-1.3,1.3-3.8,2.3-6.3,2.3s-4-1.4-4.8-3.3c-0.8-1.8-1.5-7.3-1.3-9.7c0.2-2.3,0-46.5,0-46.5h-4v54c0,0-1.3,3.3-2.3,3.8
		s-4.3,2.3-6.7,1.6c-2.3-0.8-3.8-2.1-4.8-3.9s-1-6.8-1-7.8s0-47.3,0-47.3h-19.5l21.2-71.7h-3l-12.2,40.8c0,0-2,3.2-3.7,3.8
		c-1.7,0.7-4.8,0.8-6-0.2c-1.2-1-2.7-3-2.7-5s1-4.3,1.3-5.5c0.3-1.2,12.8-42.3,12.8-42.3s2-5.5,3.8-7c1.8-1.5,6-4.2,8.7-5.2
		c2.7-1,3.5-0.7,6.3-0.8C212.6,160.7,219.6,160.9,219.6,160.9z"/>
</g>
</svg>
