<?xml version="1.0" encoding="utf-8"?>
<!-- Generator: Adobe Illustrator 22.0.0, SVG Export Plug-In . SVG Version: 6.00 Build 0)  -->
<svg version="1.1" xmlns="http://www.w3.org/2000/svg" xmlns:xlink="http://www.w3.org/1999/xlink" x="0px" y="0px"
	 viewBox="0 0 595.3 841.9" style="enable-background:new 0 0 595.3 841.9;" xml:space="preserve">
<style type="text/css">
	.st0{display:none;}
	.st1{display:inline;}
	.st2{fill:none;stroke:#000000;stroke-miterlimit:10;}
	.st3{fill:#FFFFFF;}
</style>
<g id="Layer_1" class="st0">
	<g id="JGr4Te.tif" class="st1">
		
			<image style="overflow:visible;" width="3024" height="4032" id="Layer_0" xlink:href="E0CFEFFFD3DFA693.png"  transform="matrix(0.2 0 0 0.2 -4.702 17.825)">
		</image>
	</g>
</g>
<g id="Layer_2">
	<path class="st2" d="M269,428v23l-5,38c0,0-6,27-8,33s-13,40-13,40l-1.2,14c0,0-1.8,0.8-4.5,3.5s-5.2,4.5-3.2,6s5,3.5,6.2,2.2
		s3.5,9.2,3.5,9.2s2.5,27.2,2.5,29s1.5,14.5,1.2,17s-0.5,16.2-0.5,20s0.5,32.8,0.8,36.5s1.2,16,1.2,16s-28.5-7.5-36.2-8
		s-25-2-28-2.8s-4.2-1.2-9-0.8s-13,0.2-14.2-1s-8.2-3.8-11-3s-5,1-5,1s2,3.2,3,3.8s6,1.5,6,1.5s-12,1-14.2-0.5s0.2,2.8,2,3.2
		s10.2,2,10.2,2s-5.5,1.5-7.5,1.8s-10.2,0.8-10.2,0.8s10.5,1.8,13.5,2s6.5,1.2,6.5,1.2s-16.8,3-20,3s5.2,1.2,7.2,1.2
		s6.2-1.2,6.2-1.2l-18.2,9c0,0,2.8,3,4,3s14.2-8.5,14.2-8.5s6.2-3.2,9.2-3s8-3.8,12.5-3.5s13.5,3,13.5,3l13.5,3c0,0,17,1.5,20,2
		s7.8,2.5,11.5,2.5s16,0,17.8-1.2s2.8,4,4.5,3.8s7-3.2,6-5.5s-4.8-4.5-4.8-4.5s2.8-18,1.8-20.5s-1.2-29.8-1.2-29.8s0-23-0.5-25.8
		s-0.8-20.5-0.8-20.5s-2.5-28.8-0.5-35s3.8-24.8,3.8-24.8s7.2-26.5,8.8-29s13.2-42,13.2-42l5.8-15.8l6-28.5l-2-17.5L269,428z"/>
</g>
<g id="Layer_3">
	<path class="st2" d="M331.5,428c0,0,4,35.5,3.5,42s-3.5,70.5-3.5,70.5l6,4v8.5c0,0-4.5,1-6,3s1,18.5,0,21s-4.5,43.5-6.5,50
		s-4.5,22-3.5,23.5s0.5,6-0.2,9s-4.8,51-3.8,54.5s1.8,2,9.9,3.5c8.1,1.5,30.6,6.5,40.1,5s33.5-5,33.5-5l14-4l9,4c0,0-1.5,7.1-4,5.3
		c-2.5-1.8-13-2.8-13-2.8l-3.6,0.6l0.2,1.2c0,0,10,0.1,11.9,1.2c1.9,1.1,2.6,3.4,2,3.9s-8.8,1.4-10.4,1.4s-5.4-1.6-5.9-1.5
		s0,1.5,0,1.5L413,729c0,0,0.9,1.2,0.1,2.1s-1.9,1.8-3.1,1.4s-11.4-3.2-11.4-3.2l13.6,4.8c0,0,0.6,1.2-0.5,1.6s-13.2-2.9-13.2-2.9
		l7.8,2.9c0,0-0.1,1.8-2.1,2s-16.5-0.8-17.5-1.2s-9.9-2.8-11.9-3.1s-16.2-0.6-19-0.6s-15.5-2-16.4-2.4s-24.8,1.5-26.8,2.1
		s-9.6-1.2-10.2-2.4s-1.9-3.8-1.8-4.6s2-2.8,3.2-2.9s4.2,0.6,4.8,1.4s-0.8-1.9-0.2-4.5s4-13.1,3.4-15.9s1.8-33.9,1.9-35.2
		s3.5-22.5,3.5-24.6s3.5-44.6,3.2-47.8s2.5-18.2,2.5-18.9s-0.5-13.4-0.2-14.5s0.9-44.2,0.4-48.9s-1.2-29.9-2-31.4s1.9-31.2,1.6-32.9
		s-3.4-16.9-3.4-16.9L331.5,428z"/>
</g>
<g id="Layer_4">
	<path class="st2" d="M284.3,118.3c0,0-1.3,18,0,21c1.3,3-1.3,18.7,0,22c1.3,3.3,3,30.7,3,30.7s0,13.7,0,15s1.7,11.3,1.7,14
		s0,22.7,0,22.7s-3.5-3-5.3-2c-1.7,1-9.4,16-9.4,16l-10,19L258,290l-7.7,15.3c0,0-6.3,10.7-8.3,13.7s-7.7,11.3-8,13.7
		c-0.3,2.3-3.3,9.7-3.3,9.7s-3.7-2.3-5.7,0c-2,2.3-1.3,6,0,7s4,3.7,6.3,2.7c2.3-1,10.3,17.7,10.3,17.7s8,8.7,10,10
		c2,1.3,9.7,10.7,11.7,13.7s10.7,18,13.3,19.7c2.7,1.7,15,17.3,15,17.3l3,3.3c0,0-16,18.7-17,22.7s-0.7,6-0.7,6l7.3-9.3
		c0,0-3,11.7-3,15.7s0.9,8.1,0.9,8.1s4.1-6.8,4.1-8.1c0-1.3,4.8-17.2,4.8-17.2s-2.7,13.5-2.9,15.5s0.2,9.5,1.8,11.3
		c1.5,1.8,4.7-6.8,4.7-9.5c0-2.7,2-22,2-22l9.8,12.8c0,0,3.8,0.7,2.7-4c-1.2-4.7-7.3-19.2-7.3-19.2l-2.2-14.2c0,0,19.7-1,19.5-4.2
		c-0.2-3.2-5.7-5.8-13-5.8c-7.3,0-19.3-1.8-19.3-1.8s-13.9-14.7-15.4-17.2s-10-17.8-11.5-20c-1.5-2.2-5.8-7-6.3-8.2
		c-0.5-1.2-9.5-12.5-10.3-14.7c-0.8-2.2-3.2-3.8-3.2-3.8s2.2-7.2,2.7-8.7s8.7-20.7,10.2-21.8c1.5-1.2,16.5-28.8,16.5-28.8l9.3-18.3
		l1.3-3c0,0-4.5,12.8-5,14.2c-0.5,1.3-5.2,13.2-5.3,14.5c-0.2,1.3-5.5,18.3-5.8,19.5c-0.3,1.2-7.3,20.8-7.5,22.3s-3,13.5-3.7,15.2
		c-0.7,1.7-7.8,29.2-7.8,29.2s-5.3,14.2-6.5,16.3c-1.2,2.2-6.3,19.3-7.8,20.7c-1.5,1.3-5.3,9.7-5.5,11c-0.2,1.3-5.2,14.8-6.2,16.7
		s-1.8,6.3-1.8,6.3s16.8,0.7,18.5,0.5c1.7-0.2,7-1.2,8.2-0.8c1.2,0.3,4.8,2.3,6.3,2.2c1.5-0.2,7.3,1.3,8,0.5c0.7-0.8,4.2-2,5.3-1.8
		c1.2,0.2,9.5,1,10.8,1c1.3,0,16.3-4.3,18.5-3.8c2.2,0.5,20.5,4.5,21.8,4.5c1.3,0,21.7,1.3,23.2,1.2c1.5-0.2,23.3-3.5,23.3-3.5
		s13-2.7,14.2-2.3c1.2,0.3,3.7,0,3.7,0s-14.7-28.8-16-30.7c-1.3-1.8-7.8-18-7.8-18l-8.8-17.7c0,0-6.2-22-6.8-23
		s-11.2-29.7-11.3-32.2c-0.2-2.5-5.7-15.5-6.2-16.2c-0.5-0.7-11-19.5-12.3-25.3c-1.3-5.8-4-23.8-4-23.8V260l3.7,6.5
		c0,0,10.8,23,11.2,24.5s9.7,24,9.8,25.7c0.2,1.7,13.2,34.5,13.2,34.5s2.8,6.8,2.8,7.8s-7.7,23-8,24.2c-0.3,1.2-6.8,23.5-7.7,24.7
		c-0.8,1.2-5.8,15-5.8,15s-7.3,17.3-8.5,18.5c-1.2,1.2-4.3,15-8.3,17s-8.8,7.8-9.9,10c-1.1,2.2-6.1,12.2-6.2,14.2
		c-0.2,2-1,4.7-1,4.7l19.7-21c0,0-12,21.3-12.4,23.2c-0.4,1.8,20.8-25.2,20.8-25.2l-7,22.8l8.2-19.3l9.2,13.2c0,0-2.2-15.2-5.2-18.7
		s-6-6.8-5.5-10.5c0.5-3.7,19.5-49.2,20.7-54.2c1.2-5,10.2-22.8,10.2-22.8l3.3-8.2c0,0,6.5-3.3,7.2-7c0.7-3.7,1.3-8.8-2.5-9.8
		c-3.8-1-5-1.5-5-1.5s-14.8-36.7-16.5-41c-1.7-4.3-10-24-11.5-27.2s-10.2-25.5-11.2-28.3c-1-2.8-2.3-5.5-5.3-6.7s-5.7-1.8-7.7-0.8
		s-3.7,1.8-3.7,1.8s1.8-25,1.1-26.3c-0.6-1.3-1.6-26.8-2.1-29.8s1-32.3,0.5-36c-0.5-3.7-1.3-19.5-1.2-24.3c0.2-4.8,0-12.2,0-12.2
		L284.3,118.3z"/>
	<g>
		<g>
			<path class="st3" d="M281.5,334c1.9,0,1.9-3,0-3C279.6,331,279.6,334,281.5,334L281.5,334z"/>
		</g>
	</g>
	<g>
		<g>
			<path class="st3" d="M281.5,334c1.9,0,1.9-3,0-3C279.6,331,279.6,334,281.5,334L281.5,334z"/>
		</g>
	</g>
	<g>
		<g>
			<path class="st3" d="M281,334c1.9,0,1.9-3,0-3C279.1,331,279.1,334,281,334L281,334z"/>
		</g>
	</g>
	<g>
		<g>
			<path d="M280.5,320c1.9,0,1.9-3,0-3C278.6,317,278.6,320,280.5,320L280.5,320z"/>
		</g>
	</g>
	<g>
		<g>
			<path d="M303.5,319.5c1.9,0,1.9-3,0-3C301.6,316.5,301.6,319.5,303.5,319.5L303.5,319.5z"/>
		</g>
	</g>
	<g>
		<g>
			<path d="M295,395c1.9,0,1.9-3,0-3C293.1,392,293.1,395,295,395L295,395z"/>
		</g>
	</g>
	<g>
		<g>
			<path d="M254.7,318.1c5.2,6.8,12.8,13,21.3,14.9c8.5,1.9,14.1-4.9,18.4-11.2c0.4-0.5-0.5-1-0.9-0.5c-4.5,6.7-10.2,13.2-19,10.3
				c-7.6-2.5-14.2-7.7-19-14C255.2,317.1,254.3,317.6,254.7,318.1L254.7,318.1z"/>
		</g>
	</g>
	<g>
		<g>
			<path d="M291.9,320.1c0.8,4.6,7.7,7.9,11.5,9.5c4.3,1.8,11,3.8,15.6,1.9c4.7-2,6.6-8.2,8.2-12.5c2.5-6.5,5.1-13.1,7.6-19.6
				c0.2-0.6-0.7-0.9-1-0.3c-2,5.1-3.9,10.1-5.9,15.2c-1.9,4.8-3.4,10.9-7.1,14.7c-3.8,3.9-10.6,2.1-15.2,0.6
				c-2.4-0.8-4.7-1.9-6.8-3.2c-2.3-1.4-5.5-3.4-6-6.3C292.7,319.2,291.8,319.5,291.9,320.1L291.9,320.1z"/>
		</g>
	</g>
</g>
</svg>
