<?xml version="1.0" encoding="utf-8"?>
<!-- Generator: Adobe Illustrator 22.0.0, SVG Export Plug-In . SVG Version: 6.00 Build 0)  -->
<svg version="1.1" xmlns="http://www.w3.org/2000/svg" xmlns:xlink="http://www.w3.org/1999/xlink" x="0px" y="0px"
	 viewBox="0 0 595.3 841.9" style="enable-background:new 0 0 595.3 841.9;" xml:space="preserve">
<style type="text/css">
	.st0{fill:none;stroke:#000000;stroke-miterlimit:10;}
</style>
<g id="Layer_2">
	<path class="st0" d="M274.8,311.9c-1.2,2.3-2.5,4.7-3.7,7.1"/>
</g>
<g id="Layer_5">
	<g>
		<path class="st0" d="M278,329.5l6.3-8.2c0,0-0.6,8.5-1.6,13.2s-4.5,30.5-6,32.8s-6.2,39.8-5,45.8s-3,28-3.2,29.2
			S266,465,265,466.8s-2.5,10.2-2.5,10.2l53.2-18.3c0,0-4.7-46-6.7-53.7s-5.3-33.7-5.3-39.7s6-52,6-52s12,24.7,15.3,27.3
			c3.3,2.7,12.2,14.7,15.1,22c2.9,7.3,10.2,21.3,13.6,23.3c3.3,2,11.3,16.7,15.3,19s10.7-0.3,11.3-3c0.7-2.7-2.7-12.7,0-16
			c2.7-3.3,16.7-30.7,19.3-34.3c2.7-3.7,16.7-20.3,20.7-27c4-6.7,6.7-24,9.3-30.7c2.7-6.7,4-15.3,6.7-20c2.7-4.7,8-20,8.7-22.7
			c0.7-2.7,16.7-28,17.3-33.3c0.7-5.3,6-38.7,10.7-44s27.3-16.7,30-19.3c2.7-2.7,24.7-20,24.7-20S513,136,509,138s-15.3,10-15.3,10
			l27.3-32.7L485.7,148l22.7-36.7l-30.7,38c0,0,6.7-31.3,6-34c-0.7-2.7-11.3,40-11.3,40s1.3-21.3-0.7-26.7c-2-5.3-6,19.3-6,23.3
			s2.3,17.3,2.3,17.3s-7.3,18.3-9.3,20.3s-4.3,19.3-5,21c-0.7,1.7-10,24.3-11,25.7c-1,1.3-9.7,22.3-10,24.7
			c-0.3,2.3-12.3,39.7-13.3,41s-13,29.3-14,32.7c-1,3.3-9,18-11.7,21c-2.7,3-12,16-13,20.3s-5.7,16.7-7,17.7
			c-1.3,1-21.7-34.7-24.3-36.3c-2.7-1.7-14-17.7-15.7-21.3c-1.7-3.7-9.7-15.7-11.3-17.3c-1.7-1.7-10-16.7-13.3-18.3
			c-3.3-1.7-9-3-9-3l-5,2.7c0,0,0.7-24,0-28s-1-32,0-36s-3.7-36-3-38.7c0.7-2.7-3-28-2-29.7c1-1.7,2.3-14.7,1.7-17.3
			c-0.7-2.7-5.3,1.7-5.3,1.7s1,21.7,0,16s1,16.3,0,19.3s2.2,24.9,1.7,29.2s1,25,2,28.2s-0.6,30.2-0.5,32.2s0.2,23,0.2,23
			s-4.6-4.6-6.6-2.7c-0.8,0.8-4.3,7.1-8.2,14.6"/>
		<path class="st0" d="M271.9,317.3c-5.2,10-10.1,19.6-10.1,19.6s-12.9,21.3-14,23.6s-18.2,35.5-21.4,33.7s-8.7-15.6-9.9-17.6
			c-1.1-2.1-21.4-20.9-22.8-23.7c-1.5-2.8-18.7-36.6-20.9-41.8c-2.1-5.2-7.4-29.1-8.3-33.1c-0.9-4-6.1-16.3-7-18.6
			c-0.9-2.2-2.6-10.7-1.6-12.9s7.2-36,7.2-38s-0.8-5.2-0.8-5.2l-5.5,25.5c0,0,5.8-44,4.8-50.8s-1-5-1-5l-6.3,37.5
			c0,0,4.3-42.5,2.6-45s-5.8,17.5-5.8,21s0,13,0,13s-3.8-13.2-4.2-17.8s-2.5-10.5-4-11.5s0.2,9.8,0,12.2s-1.2,15.5-0.6,18
			c0.6,2.5,3.1,20.8,3.9,22.8s-7-20.2-8.2-22s-6-8-6-9.5s-0.5,8.2,0,12s5.8,18.8,5.8,21.2s4.8,22.2,6.2,25.2s10.3,25.5,10.4,28
			s8.6,30.5,9.3,31.8s14,29.2,16.2,33s10.2,16.8,10.8,18s10.8,11.2,12.5,14.5s8.5,17,10.5,18.8s8.8,9,8.8,9s-2.8,2-1.6,3.2
			s5,6,6,4.5s2.8-8.5,3.8-10s8.5-16.8,10.8-18.5s16-19.2,16.8-20.5s9-14.8,9-14.8l11.5-19.5"/>
	</g>
</g>
<g id="Layer_3">
	<path class="st0" d="M273,452.7c0,0-6,56-8,66c-2,10-2.7,41.3-4,45.3s0,35.3,0,35.3s-10.7,6-8,8s9.8,0,9.8,0s-2.5,43.3-3.8,51.3
		s-6.4,64.7-6.4,64.7v4.3c0,0-24.6-9.3-32.2-11c-7.7-1.7-50.3-8.3-50.3-8.3s-5.7,0.3-5.3,1.3c0.3,1,7.7,2,7.7,2l4.3,1.7
		c0,0-13-1-15.3,0c-2.3,1-2.3,3.3-2.3,3.3l7,2l-15.3,0.7l16,8.3c0,0-13.7-2-16-2c-2.3,0-4.3,2-4.3,2l2.7,3.3c0,0,13,1,10.3,2.3
		c-2.7,1.3-11.3,1.7-11.3,1.7s2.3,1.7,6,2.3c3.7,0.7,13.3,2.7,19.7,0c6.3-2.7,16.7-6.7,19-6.7c2.3,0,13.3-2,17-2
		c3.7,0,14-0.7,17.3,0c3.3,0.7,14,2.3,15.7,2c1.7-0.3,4.7,0.7,4.7,0.7s0.3,2.7,2.3,3c2,0.3,7.7-0.7,8-1.7c0.3-1-0.7-7.7-0.7-7.7
		s5-30.3,4.7-34c-0.3-3.7-1.3-11.3-0.3-14.7c1-3.3,3.3-20.3,3.3-24.3s3.7-29.7,3.7-29.7s3-15.7,3-20.3s2.3-27.3,1.7-30.3
		s3.3-21.3,3.3-24c0-2.7-1.3-32.3,0-36.3c1.3-4,5-24.7,5-27.7s3-20.7,3-23.7s0-7.3,0-7.3H273z"/>
	<path class="st0" d="M290,445.3c0,0,0.3,35.3,0,40.7s0.3,28.7,0,34.7s0.6,69.3,0.1,75c-0.5,5.7,0.1,52.3,0.1,52.3s2.1,74.7,3.4,78
		c1.3,3.3-6.7,5.3-6.7,8.7c0,3.3,6.8,8,6.8,8s9.2-6,14.5-8c5.3-2,20.7-3,20.7-3s11.7-5,17.3-3.7c5.7,1.3,17.7,0.3,17.7,0.3l8,1.3
		c0,0,11.3,2,11.7,1c0.3-1-10.3-6.7-10.3-6.7s10.7,4,12,2.7c1.3-1.3,0-4.7,0-4.7l-7-2c0,0,13.3,1.3,14.7,0s-12.3-4.7-12.3-4.7
		s11.5,0,12.4-1.3s-8.1-4-8.1-4s8.6-2,8.2-4.7c-0.5-2.7-6.8-1.3-6.8-1.3s-7,3-10.7,3.7c-3.7,0.7-12.3,0.3-13.3,0.7
		c-1,0.3-10.3,4.7-13,5.3c-2.7,0.7-14,1.7-17.7,3.7c-3.7,2-17,6-20,6s-9,0.3-10.3,1c-1.3,0.7-1.7-16.3-1-23.7
		c0.7-7.3-4.7-32.3-4.7-32.3s-2-18.3-0.7-23.3s4.3-3.7,2.6-22.7s-1.6-19-1.6-19s6.3-3,6.3-4.3s1-8.3-1.3-8s-5.3,3-5.3,3
		s3.3-8.3,2-10.3s-3.3-11.3-3.3-19c0-7.7,1-25,1-30s2.3-29.7,2.3-29.7s0-12.3,0-19.3s2-19.3,2-22.5c0-3.2-1.6-8.2,0.4-15.9
		c2-7.7,2-7.7,2-7.7L290,445.3z"/>
	<g>
		<g>
			<path d="M286.7,356.7c1.3,0,1.3-2,0-2C285.4,354.7,285.4,356.7,286.7,356.7L286.7,356.7z"/>
		</g>
	</g>
	<g>
		<g>
			<path d="M298.7,352.7c1.3,0,1.3-2,0-2C297.4,350.7,297.4,352.7,298.7,352.7L298.7,352.7z"/>
		</g>
	</g>
	<g>
		<g>
			<path d="M291,406c1.3,0,1.3-2,0-2C289.7,404,289.7,406,291,406L291,406z"/>
		</g>
	</g>
</g>
</svg>
