<?xml version="1.0" encoding="utf-8"?>
<!-- Generator: Adobe Illustrator 22.0.0, SVG Export Plug-In . SVG Version: 6.00 Build 0)  -->
<svg version="1.1" id="Layer_1" xmlns="http://www.w3.org/2000/svg" xmlns:xlink="http://www.w3.org/1999/xlink" x="0px" y="0px"
	 viewBox="0 0 595.3 841.9" style="enable-background:new 0 0 595.3 841.9;" xml:space="preserve">
<g>
	<path d="M89.5,333.4v26.1h-3.4v-26.1H89.5z"/>
	<path d="M99.6,351.3l-2.7,8.2h-3.5l8.9-26.1h4.1l8.9,26.1h-3.6l-2.8-8.2H99.6z M108.2,348.7l-2.6-7.5c-0.6-1.7-1-3.3-1.4-4.8h-0.1
		c-0.4,1.6-0.8,3.1-1.3,4.7l-2.6,7.6H108.2z"/>
	<path d="M141,348c-0.2-3.6-0.4-8-0.4-11.3h-0.1c-0.9,3.1-2,6.3-3.3,9.9l-4.6,12.7H130l-4.2-12.5c-1.2-3.7-2.3-7.1-3-10.2h-0.1
		c-0.1,3.3-0.3,7.6-0.5,11.6l-0.7,11.2h-3.2l1.8-26.1h4.3l4.5,12.6c1.1,3.2,2,6.1,2.6,8.8h0.1c0.7-2.6,1.6-5.5,2.8-8.8l4.7-12.6h4.3
		l1.6,26.1h-3.3L141,348z"/>
	<path d="M154.8,336.2h-8v-2.9h19.4v2.9h-8v23.3h-3.4V336.2z"/>
	<path d="M172.5,333.4v10.9h12.6v-10.9h3.4v26.1h-3.4v-12.3h-12.6v12.3h-3.4v-26.1H172.5z"/>
	<path d="M207.9,347.3h-10.2v9.4h11.3v2.8h-14.7v-26.1h14.1v2.8h-10.7v8.3h10.2V347.3z"/>
	<path d="M213.5,333.4h3.4v23.3H228v2.8h-14.5V333.4z"/>
	<path d="M235.2,333.4v26.1h-3.4v-26.1H235.2z"/>
	<path d="M241.1,359.5v-26.1h3.7l8.4,13.2c1.9,3.1,3.5,5.8,4.7,8.5l0.1,0c-0.3-3.5-0.4-6.7-0.4-10.7v-10.9h3.2v26.1h-3.4l-8.3-13.3
		c-1.8-2.9-3.6-5.9-4.9-8.7l-0.1,0c0.2,3.3,0.3,6.4,0.3,10.8v11.2H241.1z"/>
	<path d="M280.2,347.3H270v9.4h11.3v2.8h-14.7v-26.1h14.1v2.8H270v8.3h10.2V347.3z"/>
</g>
</svg>
