<?xml version="1.0" encoding="utf-8"?>
<!-- Generator: Adobe Illustrator 22.0.0, SVG Export Plug-In . SVG Version: 6.00 Build 0)  -->
<svg version="1.1" id="Layer_1" xmlns="http://www.w3.org/2000/svg" xmlns:xlink="http://www.w3.org/1999/xlink" x="0px" y="0px"
	 viewBox="0 0 595.3 841.9" style="enable-background:new 0 0 595.3 841.9;" xml:space="preserve">
<g>
	<g>
		<path d="M143.3,151.4c-5.3-1.3-10.7,1.8-10.8,7.6c-0.1,2.6,1.1,4.8,2.9,6.6c1.1,1.2,2.5,2.1,3.6,3.2c2,1.9,1.8,1.5,0.3,4.7
			c-0.2,2.6-1.4,3.5-3.6,2.8c-1.4,0.1-2.7,0-3.9-0.6c-1.9-0.5-2.7,2.4-0.8,2.9c5,1.5,13.6,1,13.3-6.2c-0.1-2.4-1.5-4.1-3.2-5.7
			c-1.2-1.1-2.6-2-3.6-3.2c-3.5-4.1-1.2-10.7,5-9.2C144.4,154.7,145.2,151.9,143.3,151.4L143.3,151.4z"/>
	</g>
</g>
<g>
	<g>
		<path d="M147.6,164c-0.5,5.6-0.1,11,1.2,16.4c0.5,1.9,3.4,1.1,2.9-0.8c-1.3-5.2-1.6-10.3-1.1-15.6
			C150.8,162.1,147.8,162.1,147.6,164L147.6,164z"/>
	</g>
</g>
<g>
	<g>
		<path d="M150.3,154.8c1.9,0,1.9-3,0-3C148.4,151.8,148.4,154.8,150.3,154.8L150.3,154.8z"/>
	</g>
</g>
<g>
	<g>
		<path d="M172.6,163.6c-4.5,3.5-8.3,7.7-11.5,12.3c-1.1,1.6,1.5,3.1,2.6,1.5c3.1-4.5,6.8-8.4,11.1-11.7
			C176.2,164.5,174.1,162.4,172.6,163.6L172.6,163.6z"/>
	</g>
</g>
<g>
	<g>
		<path d="M160.8,164.9c4,4.1,7.7,8.5,11.1,13.1c1.1,1.5,3.7,0.1,2.6-1.5c-3.5-4.8-7.3-9.4-11.5-13.7
			C161.5,161.4,159.4,163.5,160.8,164.9L160.8,164.9z"/>
	</g>
</g>
<g>
	<g>
		<path d="M190.4,177.7c0.8-4.6-3.1-20.5,5.9-18.9c4.9,0.9,5.8,6.6,3.5,10.4c-2.1,3.5-6,5-9.8,5.6c-1.9,0.3-1.1,3.2,0.8,2.9
			c5.1-0.9,10.3-3.5,12.4-8.5c1.7-4.2,1-9.3-2.9-12c-3.4-2.3-8.1-2.1-10.7,1.3c-4.2,5.3-0.9,12.5-2,18.4
			C187.1,178.8,190,179.6,190.4,177.7L190.4,177.7z"/>
	</g>
</g>
<g>
	<g>
		<path d="M212.5,173.3c0-2.3-0.1-4.7-0.1-7c0-1.2-0.1-2.3,0-3.5c0-0.5,0-0.9,0.1-1.4c0-1.6,1.2-1.7,3.6-0.1c1,1.3,0.9,4.7,1.2,6.2
			c0.4,2.3,0.8,4.6,1.2,7c0.3,1.9,3.2,1.1,2.9-0.8c-0.7-4.2-1-8.7-2.2-12.7c-0.8-2.5-2.7-4.9-5.6-4.7c-2.5,0.2-3.7,2.4-4,4.6
			c-0.6,4,0,8.5,0,12.6C209.6,175.3,212.6,175.3,212.5,173.3L212.5,173.3z"/>
	</g>
</g>
<g>
	<g>
		<path d="M211.7,169.5c2.4,0,4.9,0,7.3,0c1.9,0,1.9-3,0-3c-2.4,0-4.9,0-7.3,0C209.7,166.5,209.7,169.5,211.7,169.5L211.7,169.5z"/>
	</g>
</g>
<g>
	<g>
		<path d="M225.8,159.3c1.5,2.1,3.1,4.2,4.6,6.3c0.7,0.9,1.9,1,2.6,0c2.9-4.6,6.3-8.8,10.1-12.8c1.4-1.4-0.8-3.5-2.1-2.1
			c-4,4.1-7.5,8.5-10.6,13.4c0.9,0,1.7,0,2.6,0c-1.5-2.1-3.1-4.2-4.6-6.3C227.3,156.3,224.7,157.8,225.8,159.3L225.8,159.3z"/>
	</g>
</g>
<g>
	<g>
		<path d="M230.8,164.7c0,3.6,0,7.1,0,10.7c0,1.9,3,1.9,3,0c0-3.6,0-7.1,0-10.7C233.8,162.7,230.8,162.7,230.8,164.7L230.8,164.7z"
			/>
	</g>
</g>
<g>
	<g>
		<path d="M255.5,161.1c-3.4-2-8-0.6-8.9,3.5c-0.4,1.7,0.1,3.6,1.2,4.9c0.9,1.1,2.6,1.8,3.1,3.2c1,2.9-2.4,4.1-4.4,2.6
			c-1.6-1.1-3.1,1.5-1.5,2.6c3.2,2.3,7.9,1,8.9-2.9c0.4-1.7,0-3.6-1.1-4.9c-0.8-1-2.4-1.6-3-2.8c-1.5-2.8,1.8-4.9,4.1-3.5
			C255.6,164.7,257.1,162.1,255.5,161.1L255.5,161.1z"/>
	</g>
</g>
<g>
	<g>
		<path d="M269.5,158.7c0,5.8,0,11.6,0,17.3c0,1.9,3,1.9,3,0c0-5.8,0-11.6,0-17.3C272.5,156.7,269.5,156.7,269.5,158.7L269.5,158.7z
			"/>
	</g>
</g>
<g>
	<g>
		<path d="M269.7,148.2c1.9,0,1.9-3,0-3C267.7,145.2,267.7,148.2,269.7,148.2L269.7,148.2z"/>
	</g>
</g>
<g>
	<g>
		<path d="M279.7,182c0.1-6.8,0.2-13.6,0.3-20.5c-0.9,0.3-1.9,0.5-2.8,0.8c4.7,6.2,9.2,12.6,13.5,19c0.7,1,2.5,1,2.7-0.4
			c1.8-9.7,3.7-19.5,5.5-29.2c0.4-1.9-2.5-2.7-2.9-0.8c-1.8,9.7-3.7,19.5-5.5,29.2c0.9-0.1,1.8-0.2,2.7-0.4
			c-4.3-6.5-8.8-12.8-13.5-19c-0.9-1.1-2.8-0.9-2.8,0.8c-0.1,6.8-0.2,13.6-0.3,20.5C276.7,183.9,279.7,183.9,279.7,182L279.7,182z"
			/>
	</g>
</g>
<g>
	<g>
		<path d="M312,185c0-7,0-14.1,0-21.1c-0.6,0.5-1.3,1-1.9,1.4c2.6,0.5,6.1,6.9,7.6,8.9c2.5,3.2,5,6.5,7.5,9.7
			c0.8,1.1,2.5,0.1,2.6-1.1c0.3-11.1,0.3-22.2,0.2-33.3c0-1.9-3-1.9-3,0c0.1,11.1,0.1,22.2-0.2,33.3c0.9-0.4,1.7-0.7,2.6-1.1
			c-3.1-4-6.2-7.9-9.3-11.9c-1.9-2.5-3.9-6.7-7.2-7.4c-0.9-0.2-1.9,0.4-1.9,1.4c0,7,0,14.1,0,21.1C309,186.9,312,186.9,312,185
			L312,185z"/>
	</g>
</g>
<g>
	<g>
		<path d="M340.2,158.3c-2.7,4.3-2.3,9.9,0.9,13.8c1.7,2.1,4.1,3.5,6.6,4.3c1.8,0.6,4.9,1.4,6.7,0.3c3.7-2.3,1.4-11.2,0-14.3
			c-2.3-4.9-7.1-8.2-12.4-5.8c-1.8,0.8-0.2,3.4,1.5,2.6c4.7-2.1,7.8,2.9,8.9,6.5c0.5,1.7,0.8,3.5,0.7,5.3c0,1-0.1,2.1-0.4,3.1
			c-0.6,0-1.2,0-1.9-0.1c-6.8-0.8-12.2-7.7-8.1-14.2C343.8,158.1,341.2,156.6,340.2,158.3L340.2,158.3z"/>
	</g>
</g>
<g>
	<g>
		<path d="M357,159c-0.5,6.2,1.3,11.6,5.2,16.4c0.5,0.7,1.5,0.5,2.1,0c2.6-2.1,3.1-6.7,4-9.7c1.4-4.6,2.7-9.1,3.9-13.7
			c0.5-1.9-2.4-2.7-2.9-0.8c-0.9,3.5-1.9,7-2.9,10.5c-0.8,2.9-1.8,9.7-4.2,11.6c0.7,0,1.4,0,2.1,0c-3.3-4.1-4.7-9-4.3-14.3
			C360.2,157.1,357.2,157.1,357,159L357,159z"/>
	</g>
</g>
<g>
	<g>
		<path d="M372,155.9c0.8,5.3-1.9,11.9,3,15.9c3.9,3.1,9.6,1.8,13.2-1.1c1.5-1.2-0.6-3.3-2.1-2.1c-3.3,2.6-9.4,3.2-10.9-1.7
			c-1.1-3.7,0.2-8-0.3-11.8C374.6,153.2,371.7,154,372,155.9L372,155.9z"/>
	</g>
</g>
<g>
	<g>
		<path d="M376.5,165.5c2.3-0.1,4.6-1.1,6-3c0.5-0.6,0.6-1.5,0-2.1c-0.5-0.5-1.6-0.6-2.1,0c-1,1.2-2.3,2-3.9,2.1
			C374.6,162.6,374.6,165.6,376.5,165.5L376.5,165.5z"/>
	</g>
</g>
<g>
	<g>
		<path d="M374.5,157.9c4.2,0.5,8.4,0,12.4-1.5c1.8-0.7,1-3.6-0.8-2.9c-3.7,1.5-7.6,2-11.6,1.4C372.6,154.7,372.6,157.7,374.5,157.9
			L374.5,157.9z"/>
	</g>
</g>
<g>
	<g>
		<path d="M397,178.5c0-2.1-1-7.8,0.1-9.4c1.1-1.7,1.8,0.4,2.4,1.6c0.7,1.5,1.5,3,2.2,4.6c0.5,1,2.1,1,2.6,0c0.9-2,1.8-4,2.8-5.9
			c0.3-0.8,0.7-1.6,1.2-2.4c1-0.6,1.6-0.3,1.7,1.1c1.3,1.7,2,4.9,2.7,6.9c0.7,2,1.3,3.9,1.9,5.9c0.6,1.8,3.5,1.1,2.9-0.8
			c-1.2-4-2.6-7.9-4.2-11.7c-0.7-1.6-1.2-4.6-3-5.3c-4.7-1.9-7.4,8.2-8.6,10.6c0.9,0,1.7,0,2.6,0c-1.2-2.5-3.6-11.1-8-9
			c-4,1.9-2.3,10.5-2.3,13.8C394,180.4,397,180.4,397,178.5L397,178.5z"/>
	</g>
</g>
<g>
	<g>
		<path d="M418.6,160.5c-0.5,5.5-0.2,10.9,0.8,16.3c0.3,1.7,2.9,1.2,2.9-0.4c0-4.4,0.1-8.7,0.1-13.1c0-1.1,0-2.2,0-3.3
			c-0.5-1.4-0.2-2,1-1.6c3.5-1.4,7.3,5.3,2.6,6.2c-1.6,0.3-1.3,2.4,0,2.9c5.1,1.9,3.4,9.4-2.2,8.5c-1.9-0.3-2.7,2.6-0.8,2.9
			c9.3,1.5,12.7-11,3.8-14.3c0,1,0,1.9,0,2.9c3.5-0.7,4.4-3.9,4.2-7.1c-0.3-3.5-1.8-4.9-5.3-5c-2.5-0.1-5.4-0.4-6.2,2.4
			c-0.7,2.7-0.1,6.1-0.1,8.8c0,3.3-0.1,6.6-0.1,9.8c1-0.1,2-0.3,2.9-0.4c-0.9-5.2-1.1-10.3-0.7-15.6
			C421.8,158.6,418.8,158.6,418.6,160.5L418.6,160.5z"/>
	</g>
</g>
<g>
	<g>
		<path d="M435,159.5c0,3,0,6-0.1,9c0,1.8-0.4,4.4,1,5.9c1.3,1.4,3.5,1.1,5.3,1.1c3.3,0,6.5,0,9.8,0c1.9,0,1.9-3,0-3
			c-2.2,0-4.4,0-6.5,0c-1.4,0-5.4,0.8-6.4-0.4c-0.7-0.8,0-5.2,0-6.3c0-2.1,0-4.2,0-6.4C438,157.6,435,157.6,435,159.5L435,159.5z"/>
	</g>
</g>
<g>
	<g>
		<path d="M437,166.5c3.3,0,6.7,0,10,0c1.9,0,1.9-3,0-3c-3.3,0-6.7,0-10,0C435.1,163.5,435.1,166.5,437,166.5L437,166.5z"/>
	</g>
</g>
<g>
	<g>
		<path d="M436.5,161c4.2,0,8.3,0,12.5,0c1.9,0,1.9-3,0-3c-4.2,0-8.3,0-12.5,0C434.6,158,434.6,161,436.5,161L436.5,161z"/>
	</g>
</g>
<g>
	<g>
		<path d="M466.4,192c-1-5.2-1.7-10.4-2.1-15.6c-0.2-2.2-0.3-4.4-0.4-6.6c0-1.3-0.1-2.5-0.1-3.8c4.5,0.9,5,2.2,1.6,3.9
			c-0.8,0.4-1,1.7-0.3,2.4c4.7,3.9,8.8,8.2,12.6,13c1.2,1.5,3.3-0.6,2.1-2.1c-3.8-4.8-7.9-9.1-12.6-13c-0.1,0.8-0.2,1.6-0.3,2.4
			c3.1-1.7,5.2-5.2,4.1-8.8c-1-3.1-4.5-5.1-7.5-3.5c-3.9,2-2.7,8-2.6,11.5c0.3,7.1,1.2,14.2,2.5,21.2
			C463.9,194.7,466.7,193.9,466.4,192L466.4,192z"/>
	</g>
</g>
<g>
	<g>
		<path d="M138,204c0,5.3,0,10.7,0,16c0,1.9,3,1.9,3,0c0-5.3,0-10.7,0-16C141,202.1,138,202.1,138,204L138,204z"/>
	</g>
</g>
<g>
	<g>
		<path d="M139.5,196.5c1.9,0,1.9-3,0-3C137.6,193.5,137.6,196.5,139.5,196.5L139.5,196.5z"/>
	</g>
</g>
<g>
	<g>
		<path d="M153.5,222c0-4.3-0.1-8.7-0.1-13c0-4.1-1.1-10.6,1.9-14c-0.8-0.1-1.6-0.2-2.4-0.3c3.2,7,6.3,14.1,9.3,21.3
			c0.7,1.8,3.6,1,2.9-0.8c-3.1-7.4-6.2-14.7-9.6-22c-0.4-0.9-1.8-1-2.4-0.3c-2.6,2.9-2.8,6.3-2.8,10.1c0,6.3,0.1,12.6,0.1,19
			C150.6,223.9,153.6,223.9,153.5,222L153.5,222z"/>
	</g>
</g>
<g>
	<g>
		<path d="M151,210c2.3,0,4.7,0,7,0c1.9,0,1.9-3,0-3c-2.3,0-4.7,0-7,0C149.1,207,149.1,210,151,210L151,210z"/>
	</g>
</g>
<g>
	<g>
		<path d="M179.5,199.6c-3.9-0.3-10.6,0.8-9.5,6.3c0.3,1.8,1.7,2.9,3.2,3.8c0.9,0.5,2.1,0.8,2.9,1.5c1.3,0.9,1.7,1.8,2,3.3
			c0.1,0.5,0.3,4-1,3.5c-1.8-0.7-2.6,2.2-0.8,2.9c5,1.9,5.5-5.4,4.5-8.5c-0.6-2-2.1-3.2-3.9-4.1c-0.8-0.4-2.3-0.8-2.9-1.5
			c-3.8-4.2,3.7-4.2,5.5-4.1C181.4,202.7,181.4,199.7,179.5,199.6L179.5,199.6z"/>
	</g>
</g>
<g>
	<g>
		<path d="M185,204.5c0,3.5,0,7.1-0.1,10.6c0,0.8,0.7,1.5,1.5,1.5c3.2,0.1,5-3.1,6.8-5.3c2.7-3.3,5.4-6.6,8-9.9
			c1.2-1.5-0.9-3.6-2.1-2.1c-2,2.4-4,4.9-5.9,7.3c-1.3,1.6-4.5,7.2-6.8,7.1c0.5,0.5,1,1,1.5,1.5c0-3.5,0-7.1,0.1-10.6
			C188,202.6,185,202.6,185,204.5L185,204.5z"/>
	</g>
</g>
<g>
	<g>
		<path d="M193.8,207.2c1.7,2.5,3.3,5,5,7.5c1.1,1.6,3.7,0.1,2.6-1.5c-1.7-2.5-3.3-5-5-7.5C195.4,204.1,192.8,205.6,193.8,207.2
			L193.8,207.2z"/>
	</g>
</g>
<g>
	<g>
		<path d="M204.6,197.5c-0.5,4.3-0.5,10.6,2.8,13.9c2.2,2.2,6.2,2.3,7.7-0.8c0.8-1.7-1.8-3.3-2.6-1.5c-1.6,3.5-4.2-2-4.5-3.4
			c-0.6-2.7-0.7-5.4-0.3-8.2C207.8,195.6,204.8,195.6,204.6,197.5L204.6,197.5z"/>
	</g>
</g>
<g>
	<g>
		<path d="M206.1,206.9c1.8,0.3,3.6,0.2,5.3-0.4c1.8-0.6,1-3.5-0.8-2.9c-1.2,0.4-2.5,0.6-3.7,0.4c-0.8-0.1-1.6,0.2-1.8,1
			C204.9,205.8,205.3,206.8,206.1,206.9L206.1,206.9z"/>
	</g>
</g>
<g>
	<g>
		<path d="M207,201c3.6,0.2,7.1-0.3,10.4-1.5c1.8-0.6,1-3.5-0.8-2.9c-3.1,1.1-6.3,1.6-9.6,1.4C205.1,197.9,205.1,200.9,207,201
			L207,201z"/>
	</g>
</g>
<g>
	<g>
		<path d="M224.4,220.4c0.6-4-2.4-16.6,5.3-15c3.5,0.7,4.7,4.7,3.2,7.8c-1.5,3.2-5.1,4.3-8.4,4.2c-1.9-0.1-1.9,2.9,0,3
			c4.3,0.1,8.9-1.7,10.9-5.7c1.8-3.5,1.3-8.3-1.9-10.8c-2.9-2.2-7.3-2.3-9.9,0.4c-4,4.2-1.3,10.2-2.1,15.2
			C221.2,221.5,224.1,222.3,224.4,220.4L224.4,220.4z"/>
	</g>
</g>
<g>
	<g>
		<path d="M255.1,219.5c-0.3-4.5-0.3-9,0.1-13.6c0.4-3.8,0.5-5.4,2.9-1.9c1.1,1.7,1.7,4.1,2.5,6c0.4,1,2.2,1,2.6,0
			c1-2.2,2.1-4.4,3.5-6.3c0.5-0.7,3.1-2.9,1.8-3.3c0.4,0.1,0.8,3.8,0.9,4.3c1.2,6,2.5,11.9,3.7,17.9c0.4,1.9,3.3,1.1,2.9-0.8
			c-1-4.8-2-9.7-3-14.5c-0.5-2.3-0.4-7.8-2.5-9.3c-4-2.8-8.8,8.3-9.9,10.6c0.9,0,1.7,0,2.6,0c-1.1-2.5-3.9-13.6-8.9-10.4
			c-2.1,1.4-1.9,4.8-2.1,6.9c-0.5,4.8-0.5,9.6-0.2,14.5C252.2,221.4,255.2,221.4,255.1,219.5L255.1,219.5z"/>
	</g>
</g>
<g>
	<g>
		<path d="M275.2,203.3c1.3,1.8,3.7,6.6,6.5,6.1c3-0.5,5.3-7.6,6.5-9.8c-0.9-0.3-1.9-0.5-2.8-0.8c0,9.4,0.1,18.7,0.1,28.1
			c0,1.9,3,1.9,3,0c0-9.4-0.1-18.7-0.1-28.1c0-1.5-2.1-2.1-2.8-0.8c-1,1.8-2.2,5.5-3.8,6.8c-0.2,1.7-0.7,1.8-1.5,0.2
			c-0.9-1.1-1.8-2.2-2.6-3.3C276.6,200.2,274,201.7,275.2,203.3L275.2,203.3z"/>
	</g>
</g>
<g>
	<g>
		<path d="M298.8,202.2c-2.8-0.8-5.2,1.9-4.7,4.7c0.3,1.7,1.5,3,2.5,4.3c0.7,0.9,2.1,2.7,0.8,3.7c-1.4,1.1-3.3-0.6-4.3-1.5
			c-1.4-1.3-3.6,0.8-2.1,2.1c2.5,2.2,7.2,4.3,9.4,0.5c0.8-1.4,0.6-3.1-0.1-4.5c-0.4-0.9-1-1.7-1.6-2.4c-0.5-0.6-1.1-1.2-1.3-1.9
			c-0.2-0.4-0.6-2.5,0.7-2.1C299.9,205.7,300.6,202.8,298.8,202.2L298.8,202.2z"/>
	</g>
</g>
<g>
	<g>
		<path d="M305,202c0,5.8,0,11.6,0,17.4c0,0.8,0.7,1.5,1.5,1.5c4.3,0.1,8.7,0.1,13-0.1c1.9-0.1,1.9-3.1,0-3c-4.3,0.2-8.7,0.2-13,0.1
			c0.5,0.5,1,1,1.5,1.5c0-5.8,0-11.6,0-17.4C308,200.1,305,200.1,305,202L305,202z"/>
	</g>
</g>
<g>
	<g>
		<path d="M308,211.5c2.8,0,5.7,0,8.5,0c1.9,0,1.9-3,0-3c-2.8,0-5.7,0-8.5,0C306.1,208.5,306.1,211.5,308,211.5L308,211.5z"/>
	</g>
</g>
<g>
	<g>
		<path d="M305.9,202.8c2.9-0.4,5.7-0.5,8.6-0.3c1.9,0.2,1.9-2.8,0-3c-3.2-0.2-6.3-0.1-9.4,0.4C303.2,200.2,304,203.1,305.9,202.8
			L305.9,202.8z"/>
	</g>
</g>
<g>
	<g>
		<path d="M324,203c0,4.7,0,9.3,0,14c0,0.8,0.7,1.5,1.5,1.5c2.5,0,5,0,7.5,0c1.9,0,1.9-3,0-3c-2.5,0-5,0-7.5,0c0.5,0.5,1,1,1.5,1.5
			c0-4.7,0-9.3,0-14C327,201.1,324,201.1,324,203L324,203z"/>
	</g>
</g>
<g>
	<g>
		<path d="M334.1,198.5c-0.6,8,0,16,1.7,23.8c0.4,1.9,3.3,1.1,2.9-0.8c-1.7-7.6-2.2-15.3-1.6-23
			C337.2,196.6,334.2,196.6,334.1,198.5L334.1,198.5z"/>
	</g>
</g>
<g>
	<g>
		<path d="M337,199.5c2.7,0,5.3,0,8,0c1.9,0,1.9-3,0-3c-2.7,0-5.3,0-8,0C335.1,196.5,335.1,199.5,337,199.5L337,199.5z"/>
	</g>
</g>
<g>
	<g>
		<path d="M334.5,210.5c2.2,0,4.3,0,6.5,0c1.9,0,1.9-3,0-3c-2.2,0-4.3,0-6.5,0C332.6,207.5,332.6,210.5,334.5,210.5L334.5,210.5z"/>
	</g>
</g>
<g>
	<g>
		<path d="M355.8,230c-1.2-9.2,0.2-18.1,4.3-26.5c-0.9-0.1-1.8-0.2-2.7-0.4c3.7,11.4,8.1,22.5,15.4,32.2c1.1,1.5,3.7,0,2.6-1.5
			c-7.1-9.5-11.4-20.3-15-31.5c-0.4-1.1-2.1-1.6-2.7-0.4c-4.3,8.8-5.9,18.3-4.7,28C353,231.8,356,231.9,355.8,230L355.8,230z"/>
	</g>
</g>
<g>
	<g>
		<path d="M354,222.5c3.5,0,7,0,10.5,0c1.9,0,1.9-3,0-3c-3.5,0-7,0-10.5,0C352.1,219.5,352.1,222.5,354,222.5L354,222.5z"/>
	</g>
</g>
<g>
	<g>
		<path d="M397.6,193.3c-13.6,2.7-14.1,33.6,3,29.6c7.4-1.8,12.1-9.9,11.6-17.1c-0.5-7.5-6.9-13.5-14.5-11.3
			c-1.9,0.5-1.1,3.4,0.8,2.9c13.8-3.9,13.4,19.9,1.3,22.7c-12.9,3-11.3-21.8-1.4-23.8C400.3,195.8,399.5,192.9,397.6,193.3
			L397.6,193.3z"/>
	</g>
</g>
<g>
	<g>
		<path d="M399.9,214c2.8,4.4,5.6,8.9,8.4,13.3c1,1.6,3.6,0.1,2.6-1.5c-2.8-4.4-5.6-8.9-8.4-13.3C401.4,210.8,398.8,212.3,399.9,214
			L399.9,214z"/>
	</g>
</g>
<g>
	<g>
		<path d="M412.6,196.5c-0.1,6.1-2.5,24.7,9.6,21c3.8-1.1,5.2-4.4,5.8-8c1.2-6.7,1.6-13.7,2.3-20.5c0.2-1.9-2.8-1.9-3,0
			c-0.7,6.3-1.3,12.7-2.1,19c-0.3,2.2-1.1,4.6-2.8,6.2c-4.7,0.4-7-1-6.7-4.3c-0.1-0.9-0.1-1.7-0.1-2.6c-0.1-3.6,0.1-7.3,0.2-10.9
			C415.6,194.6,412.6,194.6,412.6,196.5L412.6,196.5z"/>
	</g>
</g>
<g>
	<g>
		<path d="M431,199.5c0,3.3,0,6.6,0,9.9c0,2.4-0.6,5.6,0.1,8c1,3.6,7.2,2.1,9.9,2.1c1.9,0,1.9-3,0-3c-1.7,0-4.9,0.7-6.3,0
			c-1.8-0.9,0.2,1.1-0.7-0.7c-0.3-0.7,0-2.9,0-3.5c0-4.3,0-8.5,0-12.8C434,197.6,431,197.6,431,199.5L431,199.5z"/>
	</g>
</g>
<g>
	<g>
		<path d="M433.5,209.5c1.8,0,3.7,0,5.5,0c1.9,0,1.9-3,0-3c-1.8,0-3.7,0-5.5,0C431.6,206.5,431.6,209.5,433.5,209.5L433.5,209.5z"/>
	</g>
</g>
<g>
	<g>
		<path d="M431,200.5c1.7,0,3.3,0,5,0c1.9,0,1.9-3,0-3c-1.7,0-3.3,0-5,0C429.1,197.5,429.1,200.5,431,200.5L431,200.5z"/>
	</g>
</g>
<g>
	<g>
		<path d="M459.7,198.5c-4.6-1-12.6-1.3-12.8,5.4c-0.1,3.2,2.8,5.4,4.4,7.7c2.3,3.5,4.6,8.2-0.1,11.1c-3.5,2.1-7.5,0.5-10.6-1.3
			c-1.7-1-3.2,1.6-1.5,2.6c5.4,3.1,13.6,4.4,17.1-2.2c1.2-2.4,1-4.9,0.1-7.3c-0.8-2.1-2.5-3.8-3.4-5.8c-1.2-2.6-1.4,0.3-0.7-4.6
			c-0.6-2.8,0.3-3.9,2.7-3.1c1.3-0.1,2.7,0,4,0.4C460.8,201.8,461.6,198.9,459.7,198.5L459.7,198.5z"/>
	</g>
</g>
<g>
	<g>
		<path d="M470.6,201c-0.1,8.8-0.3,17.7-0.4,26.5c0,1.9,3,1.9,3,0c0.1-8.8,0.3-17.7,0.4-26.5C473.7,199.1,470.7,199.1,470.6,201
			L470.6,201z"/>
	</g>
</g>
<g>
	<g>
		<path d="M465.5,202.7c5.7-0.3,11.3-0.4,17-0.2c1.9,0.1,1.9-2.9,0-3c-5.7-0.2-11.3-0.1-17,0.2C463.6,199.8,463.6,202.8,465.5,202.7
			L465.5,202.7z"/>
	</g>
</g>
<g>
	<g>
		<path d="M486,211c0,4.7,0,9.3,0,14c0,1.9,3,1.9,3,0c0-4.7,0-9.3,0-14C489,209.1,486,209.1,486,211L486,211z"/>
	</g>
</g>
<g>
	<g>
		<path d="M487.5,197c1.9,0,1.9-3,0-3C485.6,194,485.6,197,487.5,197L487.5,197z"/>
	</g>
</g>
<g>
	<g>
		<path d="M504.5,203.4c-4.7,0-7.1,5.3-7.6,9.4c-0.6,5.5,3.4,9,8.6,9.8c5.1,0.7,6.4-4,6.8-8.1c0.5-4.8-0.8-10.4-6.4-11
			c-1.9-0.2-1.9,2.8,0,3c3.9,0.4,3.7,5.1,3.4,8c-0.3,3-1.2,6-5.1,4.7c-3-1-4.7-2.7-4.4-5.9c0.2-2.5,1.6-6.8,4.6-6.8
			C506.5,206.4,506.5,203.4,504.5,203.4L504.5,203.4z"/>
	</g>
</g>
<g>
	<g>
		<path d="M522,224.5c0-3.3,0-6.6,0-9.8c0-1.5-0.9-9.4,0.3-10.1c-0.7-0.2-1.4-0.4-2.1-0.5c2.3,5.1,4.9,10.1,7.8,15
			c0.7,1.2,2.3,0.8,2.7-0.4c2.9-8.6,5.3-17.4,7-26.3c0.4-1.9-2.5-2.7-2.9-0.8c-1.8,8.9-4.1,17.7-7,26.3c0.9-0.1,1.8-0.2,2.7-0.4
			c-2.9-4.9-5.5-9.9-7.8-15c-0.3-0.7-1.4-0.9-2.1-0.5c-2.4,1.5-1.8,4.2-1.8,6.8c0,5.2,0,10.5,0,15.7C519,226.4,522,226.4,522,224.5
			L522,224.5z"/>
	</g>
</g>
</svg>
