<?xml version="1.0" encoding="utf-8"?>
<!-- Generator: Adobe Illustrator 22.0.0, SVG Export Plug-In . SVG Version: 6.00 Build 0)  -->
<svg version="1.1" id="Layer_1" xmlns="http://www.w3.org/2000/svg" xmlns:xlink="http://www.w3.org/1999/xlink" x="0px" y="0px"
	 viewBox="0 0 595.3 841.9" style="enable-background:new 0 0 595.3 841.9;" xml:space="preserve">
<style type="text/css">
	.st0{fill:none;stroke:#000000;stroke-miterlimit:10;}
</style>
<g>
	<path class="st0" d="M16.9,324.3h34.1c4.4,0,8.3,0.8,11.7,2.3c3.4,1.5,6.2,3.5,8.5,5.9c2.3,2.4,4,5.2,5.2,8.3
		c1.2,3.1,1.8,6.1,1.8,9.2c0,3.3-0.6,6.5-1.8,9.6c-1.2,3.1-3,5.8-5.3,8.3c-2.3,2.4-5.1,4.4-8.5,5.8c-3.4,1.4-7.3,2.2-11.6,2.2H26.6
		v38.7h-9.6V324.3z M26.6,367.3h24.5c2.3,0,4.6-0.5,6.7-1.4c2.1-0.9,4-2.2,5.6-3.7c1.6-1.6,2.9-3.4,3.8-5.5c1-2.1,1.4-4.4,1.4-6.8
		c0-2.4-0.5-4.7-1.4-6.7c-0.9-2-2.2-3.8-3.7-5.3c-1.6-1.5-3.4-2.6-5.5-3.5c-2.1-0.9-4.5-1.3-7-1.3H26.6V367.3z"/>
	<path class="st0" d="M106.2,324.3v90.2h-9.6v-90.2H106.2z"/>
	<path class="st0" d="M134.5,368.2c0,6.9,0.9,12.8,2.7,17.9c1.8,5.1,4.1,9.3,7,12.6c2.9,3.3,6.2,5.8,9.8,7.4
		c3.6,1.7,7.4,2.5,11.2,2.5c3.9,0,7.5-0.7,10.7-2.2c3.2-1.4,6-3.3,8.3-5.7c2.3-2.3,4.3-5,5.8-8c1.5-3,2.6-6.1,3.2-9.2h9.8
		c-0.9,4.7-2.3,9.1-4.4,13.1c-2,4-4.7,7.6-7.9,10.6c-3.2,3-7,5.4-11.2,7.2c-4.3,1.7-9,2.6-14.3,2.6c-6.2,0-11.7-1.1-16.7-3.3
		c-5-2.2-9.2-5.4-12.7-9.6c-3.5-4.2-6.2-9.3-8.1-15.4c-1.9-6-2.9-12.9-2.9-20.7c0-5.9,0.9-11.7,2.7-17.3s4.5-10.6,7.9-14.9
		c3.4-4.3,7.6-7.8,12.6-10.4c5-2.6,10.7-3.9,17-3.9c5.4,0,10.2,0.7,14.4,2.2c4.2,1.4,7.9,3.4,11,5.9c3.1,2.5,5.7,5.5,7.8,9
		c2.1,3.5,3.7,7.3,5,11.5h-10.2c-2.3-6.8-5.8-11.8-10.4-15.1c-4.6-3.3-10.4-5-17.7-5c-4.5,0-8.6,1-12.4,3.1c-3.7,2-7,4.8-9.6,8.3
		c-2.7,3.5-4.8,7.6-6.3,12.2C135.2,358.4,134.5,363.2,134.5,368.2z"/>
	<path class="st0" d="M226.4,324.3v46.1l46-46.1H285l-35.7,35.5l37.8,54.7H275l-32.3-47.8l-16.3,16v31.8h-9.6v-90.2H226.4z"/>
	<path class="st0" d="M420.2,369.5c0,7-0.9,13.3-2.7,19.1c-1.8,5.8-4.4,10.8-7.9,14.9c-3.5,4.2-7.7,7.4-12.7,9.8
		c-5,2.3-10.8,3.5-17.3,3.5c-6.4,0-12.2-1.2-17.2-3.5c-5-2.3-9.3-5.6-12.7-9.8c-3.4-4.2-6-9.1-7.8-14.9c-1.8-5.8-2.7-12.1-2.7-19.1
		c0-7,0.9-13.3,2.7-19.1c1.8-5.8,4.4-10.8,7.8-14.9c3.4-4.2,7.7-7.4,12.7-9.8c5-2.3,10.8-3.5,17.2-3.5c6.5,0,12.3,1.2,17.3,3.5
		c5,2.3,9.2,5.6,12.7,9.8c3.5,4.2,6.1,9.1,7.9,14.9C419.3,356.2,420.2,362.6,420.2,369.5z M410.5,369.5c0-6.1-0.8-11.5-2.4-16.4
		c-1.6-4.8-3.8-8.9-6.6-12.2c-2.8-3.3-6-5.8-9.8-7.6c-3.7-1.8-7.8-2.7-12.1-2.7c-4.3,0-8.4,0.9-12.1,2.7c-3.7,1.8-7,4.3-9.8,7.6
		c-2.8,3.3-5,7.4-6.5,12.2c-1.6,4.8-2.3,10.3-2.3,16.4c0,6.1,0.8,11.5,2.3,16.4c1.6,4.8,3.7,8.9,6.5,12.2c2.8,3.3,6,5.8,9.8,7.6
		c3.7,1.8,7.8,2.7,12.1,2.7c4.3,0,8.4-0.9,12.1-2.7c3.7-1.8,7-4.3,9.8-7.6c2.8-3.3,5-7.4,6.6-12.2
		C409.7,381.1,410.5,375.6,410.5,369.5z"/>
	<path class="st0" d="M446.8,324.3l45.9,77.9v-77.9h9.6v90.2h-12.9l-45.9-77.9v77.9h-9.6v-90.2H446.8z"/>
	<path class="st0" d="M576.1,324.3v8.7h-50.6v30.5h47.6v8.7h-47.6v33.5h52.8v8.7h-62.4v-90.2H576.1z"/>
</g>
</svg>
