<?xml version="1.0" encoding="utf-8"?>
<!-- Generator: Adobe Illustrator 22.0.0, SVG Export Plug-In . SVG Version: 6.00 Build 0)  -->
<svg version="1.1" id="Layer_1" xmlns="http://www.w3.org/2000/svg" xmlns:xlink="http://www.w3.org/1999/xlink" x="0px" y="0px"
	 viewBox="0 0 595.3 841.9" style="enable-background:new 0 0 595.3 841.9;" xml:space="preserve">
<style type="text/css">
	.st0{fill:none;stroke:#000000;stroke-miterlimit:10;}
</style>
<g>
	<circle class="st0" cx="137.1" cy="197.4" r="38.6"/>
	<path class="st0" d="M137.1,248.1h33.2c0,0,30.2,4.3,38.9,28.5c8.6,24.2,21.6,67.3,21.6,67.3l9.5,30.2l7.8,24.2
		c0,0,0.4,11.7-3.9,16c-4.3,4.3-7.8,6-13,6s-9.9-2.2-12.1-4.7s-26.6-87.6-26.6-87.6l-8-24.2h-9.1l53.5,184.8h-49.2v133.4
		c0,0-2.2,10.8-5.6,14.2c-3.5,3.5-9.9,5.8-16.4,5.8s-10.4-3.7-12.5-8.4c-2.2-4.7-3.9-19-3.5-25c0.4-6,0-120.4,0-120.4h-10.4V628
		c0,0-3.5,8.6-6,9.9c-2.6,1.3-11.2,6.1-17.3,4.1c-6-1.9-9.9-5.4-12.5-10.1c-2.6-4.7-2.6-17.7-2.6-20.3s0-122.6,0-122.6H42.6
		l54.8-185.6h-7.8L58.1,409.1c0,0-5.2,8.2-9.5,9.9s-12.5,2.2-15.5-0.4c-3-2.6-6.9-7.8-6.9-13s2.6-11.2,3.5-14.2
		s33.2-109.7,33.2-109.7s5.2-14.2,9.9-18.1c4.7-3.9,15.5-10.8,22.4-13.4s9.1-1.7,16.4-2.2C119,247.6,137.1,248.1,137.1,248.1z"/>
</g>
<g>
	<circle class="st0" cx="446.4" cy="197.4" r="38.6"/>
	<path class="st0" d="M398.7,247.9H492c0,0,12.1,0.4,21.6,6.5c9.5,6,19.9,14.7,21.6,22.4c1.7,7.8,5.3,16.4,5.3,26.8s0,118.3,0,118.3
		s-1.9,13.8-6.2,16.4s-15.5,3.5-18.6,1.7s-9.1-6.5-9.9-10.4s0-119.2,0-119.2h-8.6v310c0,0-1.7,9.9-6.5,15.1c-4.7,5.2-9.5,6.9-13,6.9
		c-3.5,0-11.2-1.3-13.8-2.2c-2.6-0.9-9.1-3.9-10.4-7.3s-3.5-6-3.5-9.1c0-3,0-185.6,0-185.6H441V623c0,0-2.6,10.8-6.9,14.2
		c-4.3,3.5-11.7,5.2-11.7,5.2s-4.3,1.7-9.1,0s-13-5.6-14.7-8.7s-3-12.1-3-14.7s0-308.7,0-308.7h-9.1v116.1c0,0-0.9,5.2-4.3,8.2
		c-3.5,3-8.6,5.2-12.1,5.6c-3.5,0.4-11.2-1.7-13.4-3.9c-2.2-2.2-4.5-8.2-4.5-10.4c0-2.2,0-127.4,0-127.4s1.9-13.8,3.2-17.3
		c1.3-3.5,6.5-14.2,8.6-16.8c2.2-2.6,9.5-8.2,11.7-9.5C378,253.9,388.4,247.9,398.7,247.9z"/>
</g>
<rect x="273.5" y="82.4" class="st0" width="44.3" height="654.3"/>
</svg>
