<?xml version="1.0" encoding="utf-8"?>
<!-- Generator: Adobe Illustrator 22.0.0, SVG Export Plug-In . SVG Version: 6.00 Build 0)  -->
<svg version="1.1" id="Layer_1" xmlns="http://www.w3.org/2000/svg" xmlns:xlink="http://www.w3.org/1999/xlink" x="0px" y="0px"
	 viewBox="0 0 595.3 841.9" style="enable-background:new 0 0 595.3 841.9;" xml:space="preserve">
<style type="text/css">
	.st0{fill:#FFFFFF;stroke:#000000;stroke-miterlimit:10;}
</style>
<g>
	<path class="st0" d="M312.5,342.3c0,8.2-6.7,14.9-14.9,14.9s-1.2-9.1-14.9-14.9c-13.7-5.8,6.7-14.9,14.9-14.9
		S312.5,334.1,312.5,342.3z"/>
	<path class="st0" d="M297.6,361.9h12.8c0,0,7.1,5.1,15,11c11.6,8.7,9.1,25.7,8.3,26l3.7,11.7l3,9.3c0,0,0.2,4.5-1.5,6.2
		c-1.7,1.7-3,2.3-5,2.3s-6-1.6-4.7-1.8c9.6-1.6-4.5-34.1-10.3-33.8l-3.1-9.3h-3.5c4.2,32.1,7.9,65.6,20.7,71.3c0,0-10.8,8.3-19,0
		c-7.1-7.3,1.1,54.5,0,51.5c0,0-0.8,4.2-2.2,5.5c-1.3,1.3-3.8,2.3-6.3,2.3s-1.7-16.5-4.8-3.3c-3.2,13.3-2.5-7.6-1.3-9.7
		c15.9-27.2,4.6-53.8,0-46.5h-4c-4.8,34-4.5,54.2,0,54c0,0-1.3,3.3-2.3,3.8c-1,0.5-5.2-12.9-6.7,1.6c-1.5,14.5-3.8-2.1-4.8-3.9
		s-1.4-8.8-1-7.8c4.4,10.1,4.6-35.8,0-47.3c0,0-22.8,11.1-19.5,0c1-3.3,38.3-89.2,21.2-71.7h-3l-12.2,40.8c0,0-2,3.2-3.7,3.8
		c-1.7,0.7-4.8,0.8-6-0.2c-1.2-1-2.7-3-2.7-5s0.1-5.6,1.3-5.5c7.5,0.8,23.9-39.2,12.8-42.3c0,0,2-5.5,3.8-7c1.8-1.5,6-4.2,8.7-5.2
		c2.7-1,3.5-0.7,6.3-0.8C290.6,361.7,297.6,361.9,297.6,361.9z"/>
</g>
</svg>
